<svg xmlns="http://www.w3.org/2000/svg" xmlns:xlink="http://www.w3.org/1999/xlink" x="0" y="0" version="1.1" viewBox="0 0 577.638 525.052" xml:space="preserve" style="enable-background:new 0 0 577.638 525.052"><style type="text/css">.st9{fill:#127bf9}.st10{fill:#055aad}.st22{fill:#50a5f9}.st46{fill:#0565d8}.st47{fill:#2b94fc}</style><g id="Warstwa_4"><g><g><polygon points="288.819 236.327 288.819 288.725 288.819 352.909 288.819 405.306 389.781 463.597 389.781 411.199 389.781 347.016 389.781 294.618" class="st46"/></g><g><polygon points="187.856 294.618 187.856 347.016 187.856 411.199 187.856 463.597 288.819 405.306 288.819 352.909 288.819 288.725 288.819 236.327" class="st10"/></g><polygon points="389.781 61.456 288.819 119.746 187.856 61.456 86.894 119.746 187.856 178.037 288.819 236.327 389.781 178.037 490.744 119.746" class="st22"/><polygon points="187.856 178.037 86.894 119.746 86.894 236.327 86.894 288.725 86.894 352.909 86.894 405.306 187.856 463.597 187.856 411.199 187.856 347.016 187.856 294.618 288.819 352.909 288.819 236.327" class="st47"/><polygon points="389.781 178.037 288.819 236.327 288.819 352.909 389.781 294.618 389.781 347.016 389.781 411.199 389.781 463.597 490.744 405.306 490.744 352.909 490.744 288.725 490.744 236.327 490.744 119.746" class="st9"/></g></g></svg>